<?xml version="1.0" standalone="no"?>
<!DOCTYPE svg PUBLIC "-//W3C//DTD SVG 20010904//EN"
 "http://www.w3.org/TR/2001/REC-SVG-20010904/DTD/svg10.dtd">
<svg version="1.0" xmlns="http://www.w3.org/2000/svg"
 width="512.000000pt" height="512.000000pt" viewBox="0 0 512.000000 512.000000"
 preserveAspectRatio="xMidYMid meet">

<g transform="translate(0.000000,512.000000) scale(0.100000,-0.100000)"
fill="#000000" stroke="none">
<path d="M459 4411 l-29 -29 0 -1822 0 -1822 29 -29 29 -29 2072 0 2072 0 29
29 29 29 0 1822 0 1822 -29 29 -29 29 -2072 0 -2072 0 -29 -29z m4071 -316 l0
-175 -1970 0 -1970 0 0 175 0 175 1970 0 1970 0 0 -175z m0 -1795 l0 -1450
-1970 0 -1970 0 0 1450 0 1450 1970 0 1970 0 0 -1450z"/>
<path d="M3495 4169 c-69 -40 -57 -136 20 -155 99 -25 173 73 106 140 -22 22
-98 31 -126 15z"/>
<path d="M3830 4173 c-52 -21 -77 -85 -47 -124 37 -48 115 -53 158 -10 35 35
37 70 6 106 -22 26 -84 41 -117 28z"/>
<path d="M4144 4170 c-28 -11 -54 -48 -54 -78 0 -37 52 -82 95 -82 42 0 90 22
99 45 10 27 6 69 -8 87 -25 33 -87 46 -132 28z"/>
<path d="M3415 3309 c-324 -44 -572 -205 -647 -417 -17 -50 -19 -90 -19 -590
0 -603 -1 -592 72 -702 130 -193 430 -320 759 -320 281 0 526 86 681 240 82
81 111 127 134 217 23 86 22 1042 -1 1128 -51 199 -261 360 -553 426 -102 23
-324 32 -426 18z m291 -164 c92 -6 230 -47 314 -91 374 -196 253 -549 -224
-650 -346 -74 -747 47 -857 257 -35 66 -33 158 3 220 64 109 206 199 384 244
74 18 218 34 274 29 19 -2 67 -6 106 -9z m-716 -766 c177 -116 381 -166 639
-156 219 8 386 57 534 154 40 27 76 50 81 52 5 2 5 -39 1 -95 -9 -118 -30
-168 -102 -235 -180 -169 -524 -232 -838 -153 -95 24 -233 96 -292 152 -77 74
-96 118 -101 236 -4 82 -2 97 9 90 8 -5 39 -25 69 -45z m-24 -454 c62 -48 192
-109 284 -134 125 -34 231 -44 384 -38 214 8 383 58 529 154 40 27 76 50 81
52 5 2 6 -36 2 -90 -9 -120 -36 -180 -113 -248 -272 -242 -874 -234 -1126 15
-73 72 -90 112 -95 227 -2 53 -2 97 2 97 3 0 27 -16 52 -35z"/>
<path d="M1474 3245 c-24 -24 -26 -32 -22 -102 l3 -76 -51 -17 c-27 -10 -64
-25 -81 -34 l-32 -16 -38 50 c-42 54 -81 74 -116 60 -12 -4 -78 -65 -146 -133
-152 -154 -155 -164 -69 -239 l55 -49 -33 -82 -34 -82 -73 3 c-61 3 -77 1 -97
-16 -25 -20 -25 -22 -28 -204 -3 -177 -2 -185 19 -212 21 -27 24 -28 101 -24
l79 3 18 -50 c10 -27 26 -65 35 -83 10 -19 16 -35 14 -36 -2 -1 -25 -20 -52
-41 -56 -45 -70 -73 -55 -112 12 -33 212 -238 252 -259 45 -24 80 -10 127 51
l42 54 46 -23 c26 -13 64 -29 85 -36 l38 -12 -7 -73 c-6 -70 -5 -75 19 -99
l26 -26 184 0 c183 0 184 0 207 25 23 25 29 78 15 145 -5 23 0 27 81 58 l86
34 52 -56 c78 -84 83 -82 238 71 71 70 131 138 135 151 5 22 -13 82 -26 82 -3
1 -24 16 -45 34 l-39 33 34 86 33 85 74 -5 c66 -5 75 -4 97 17 25 23 25 25 25
207 l0 184 -26 26 c-24 24 -29 25 -99 19 l-73 -7 -12 38 c-7 21 -23 59 -36 85
l-23 46 53 42 c99 76 96 93 -51 242 -65 66 -130 126 -145 134 -48 25 -90 1
-150 -85 l-16 -22 -48 24 c-27 13 -65 29 -85 36 l-36 11 5 79 c4 75 4 78 -23
99 -26 21 -38 22 -207 22 -178 0 -179 0 -204 -25z m260 -197 c-8 -85 10 -109
103 -132 37 -10 106 -37 152 -62 46 -24 95 -44 109 -44 17 0 39 15 71 50 l46
50 39 -39 38 -39 -51 -49 c-56 -54 -61 -72 -31 -123 42 -72 78 -157 90 -212
19 -84 42 -101 124 -96 l66 4 0 -58 0 -57 -62 6 c-81 7 -103 -9 -124 -92 -8
-33 -38 -106 -66 -162 -46 -93 -50 -105 -39 -131 7 -16 30 -42 51 -58 22 -16
40 -31 40 -34 0 -15 -82 -84 -88 -74 -71 105 -91 109 -213 47 -52 -27 -121
-55 -153 -62 -36 -8 -68 -23 -84 -38 -23 -23 -24 -29 -18 -89 l7 -64 -59 0
-58 0 4 66 c4 57 2 68 -19 90 -12 13 -29 24 -36 24 -31 0 -171 54 -224 86 -77
46 -93 44 -151 -18 l-49 -51 -39 38 -40 39 50 46 c35 32 50 54 50 72 0 14 -20
63 -44 109 -25 46 -52 113 -61 149 -9 36 -26 76 -38 89 -20 21 -27 23 -90 17
l-68 -6 3 57 3 58 67 -3 c82 -5 100 10 119 95 7 32 35 100 61 152 64 126 63
138 -14 199 l-37 29 43 42 43 42 28 -41 c51 -73 76 -76 178 -21 40 22 111 51
159 66 101 30 110 40 108 123 -1 31 -1 60 -1 65 1 4 26 7 56 7 l56 0 -7 -62z"/>
<path d="M1590 2809 c-92 -15 -207 -79 -278 -153 -307 -319 -105 -839 338
-872 244 -19 477 155 535 397 62 263 -96 537 -352 612 -70 21 -176 28 -243 16z
m240 -190 c222 -104 273 -397 100 -569 -172 -173 -458 -123 -567 98 -25 50
-28 68 -28 152 0 112 18 161 85 234 80 87 153 117 275 113 61 -2 93 -8 135
-28z"/>
</g>
</svg>
