<svg width="171" height="85" viewBox="0 0 171 85" fill="none" xmlns="http://www.w3.org/2000/svg">
<path d="M100.755 60.3041L100.461 31.2147L111.114 31.1042C113.178 31.0828 114.89 31.406 116.251 32.0737C117.612 32.732 118.635 33.6352 119.319 34.7835C120.003 35.9223 120.352 37.2114 120.367 38.6507C120.379 39.8628 120.167 40.8877 119.73 41.7256C119.293 42.5541 118.703 43.2231 117.96 43.7327C117.227 44.2328 116.416 44.6011 115.528 44.8376L115.531 45.1216C116.497 45.159 117.443 45.4617 118.367 46.0298C119.301 46.5883 120.076 47.39 120.693 48.4348C121.309 49.4796 121.625 50.7548 121.641 52.2604C121.656 53.747 121.319 55.0858 120.63 56.2768C119.951 57.4581 118.89 58.4019 117.448 59.1082C116.006 59.805 114.159 60.1651 111.905 60.1885L100.755 60.3041ZM105.106 56.4946L111.441 56.4289C113.543 56.4071 115.044 55.9843 115.945 55.1605C116.846 54.3367 117.29 53.3141 117.278 52.0925C117.269 51.174 117.028 50.3337 116.556 49.5715C116.085 48.8093 115.416 48.2054 114.549 47.7598C113.692 47.3141 112.677 47.0974 111.503 47.1095L105.012 47.1769L105.106 56.4946ZM104.977 43.7537L110.857 43.6928C111.842 43.6825 112.726 43.484 113.508 43.0971C114.299 42.71 114.924 42.1732 115.381 41.4866C115.847 40.7905 116.076 39.9737 116.066 39.0362C116.054 37.8336 115.622 36.8295 114.771 36.0239C113.92 35.2183 112.624 34.8245 110.881 34.8426L104.887 34.9048L104.977 43.7537Z" fill="#FDC964"/>
<path d="M55.6534 60H50.9943L61.4631 30.9091H66.5341L77.0028 60H72.3438L64.1193 36.1932H63.892L55.6534 60ZM56.4347 48.608H71.5483V52.3011H56.4347V48.608Z" fill="#FDC964"/>
<path d="M0.39405 50.2969L0.358199 42.6606L45.5274 20.4938L45.5762 30.8914L12.239 46.2867L12.5429 45.6717L12.5498 47.1376L12.2403 46.5595L45.7204 61.607L45.7694 72.0387L0.39405 50.2969Z" fill="#FDC964"/>
<path d="M170.106 49.5041L124.936 71.67L124.887 61.2383L158.225 45.8778L157.887 46.4589L157.88 44.993L158.224 45.6051L124.744 30.5227L124.695 20.1251L170.07 41.8678L170.106 49.5041Z" fill="#FDC964"/>
<path d="M105.532 0.373421L83.4225 84.0686L74.3204 84.1111L96.4295 0.41595L105.532 0.373421Z" fill="#FDC964"/>
</svg>
